<mxfile host="Electron" agent="Mozilla/5.0 (Windows NT 10.0; Win64; x64) AppleWebKit/537.36 (KHTML, like Gecko) draw.io/24.7.17 Chrome/128.0.6613.36 Electron/32.0.1 Safari/537.36" version="24.7.17">
  <diagram name="Página-1" id="Nrs9a-bXahrvplYmQoE8">
    <mxGraphModel dx="1088" dy="838" grid="1" gridSize="10" guides="1" tooltips="1" connect="1" arrows="1" fold="1" page="1" pageScale="1" pageWidth="827" pageHeight="1169" math="0" shadow="0">
      <root>
        <mxCell id="0" />
        <mxCell id="1" parent="0" />
        <mxCell id="41VtS2ZDBy322H1SMXV3-1" value="Clientes" style="rounded=0;whiteSpace=wrap;html=1;" vertex="1" parent="1">
          <mxGeometry x="26" y="260" width="120" height="60" as="geometry" />
        </mxCell>
        <mxCell id="41VtS2ZDBy322H1SMXV3-2" value="Coche" style="rounded=0;whiteSpace=wrap;html=1;" vertex="1" parent="1">
          <mxGeometry x="546" y="260" width="120" height="60" as="geometry" />
        </mxCell>
        <mxCell id="41VtS2ZDBy322H1SMXV3-3" value="Accidentes" style="rounded=0;whiteSpace=wrap;html=1;" vertex="1" parent="1">
          <mxGeometry x="546" y="580" width="120" height="60" as="geometry" />
        </mxCell>
        <mxCell id="41VtS2ZDBy322H1SMXV3-4" value="Accidentes&lt;div&gt;x&lt;/div&gt;&lt;div&gt;Coche&lt;/div&gt;" style="rhombus;whiteSpace=wrap;html=1;" vertex="1" parent="1">
          <mxGeometry x="566" y="410" width="80" height="80" as="geometry" />
        </mxCell>
        <mxCell id="41VtS2ZDBy322H1SMXV3-5" value="Clientes&lt;div&gt;X&lt;/div&gt;&lt;div&gt;Coche&lt;/div&gt;" style="rhombus;whiteSpace=wrap;html=1;" vertex="1" parent="1">
          <mxGeometry x="306" y="250" width="80" height="80" as="geometry" />
        </mxCell>
        <mxCell id="41VtS2ZDBy322H1SMXV3-6" value="" style="endArrow=none;html=1;rounded=0;entryX=0;entryY=0.5;entryDx=0;entryDy=0;exitX=1;exitY=0.5;exitDx=0;exitDy=0;" edge="1" parent="1" source="41VtS2ZDBy322H1SMXV3-1" target="41VtS2ZDBy322H1SMXV3-5">
          <mxGeometry width="50" height="50" relative="1" as="geometry">
            <mxPoint x="336" y="460" as="sourcePoint" />
            <mxPoint x="386" y="410" as="targetPoint" />
          </mxGeometry>
        </mxCell>
        <mxCell id="41VtS2ZDBy322H1SMXV3-7" value="" style="endArrow=none;html=1;rounded=0;entryX=0;entryY=0.5;entryDx=0;entryDy=0;exitX=1;exitY=0.5;exitDx=0;exitDy=0;" edge="1" parent="1" source="41VtS2ZDBy322H1SMXV3-5" target="41VtS2ZDBy322H1SMXV3-2">
          <mxGeometry width="50" height="50" relative="1" as="geometry">
            <mxPoint x="386" y="289.5" as="sourcePoint" />
            <mxPoint x="546" y="289.5" as="targetPoint" />
          </mxGeometry>
        </mxCell>
        <mxCell id="41VtS2ZDBy322H1SMXV3-8" value="" style="endArrow=none;html=1;rounded=0;entryX=0.5;entryY=1;entryDx=0;entryDy=0;exitX=0.5;exitY=0;exitDx=0;exitDy=0;" edge="1" parent="1" source="41VtS2ZDBy322H1SMXV3-4" target="41VtS2ZDBy322H1SMXV3-2">
          <mxGeometry width="50" height="50" relative="1" as="geometry">
            <mxPoint x="336" y="460" as="sourcePoint" />
            <mxPoint x="386" y="410" as="targetPoint" />
          </mxGeometry>
        </mxCell>
        <mxCell id="41VtS2ZDBy322H1SMXV3-9" value="" style="endArrow=none;html=1;rounded=0;entryX=0.5;entryY=0;entryDx=0;entryDy=0;exitX=0.5;exitY=1;exitDx=0;exitDy=0;" edge="1" parent="1" source="41VtS2ZDBy322H1SMXV3-4" target="41VtS2ZDBy322H1SMXV3-3">
          <mxGeometry width="50" height="50" relative="1" as="geometry">
            <mxPoint x="336" y="460" as="sourcePoint" />
            <mxPoint x="386" y="410" as="targetPoint" />
          </mxGeometry>
        </mxCell>
        <mxCell id="41VtS2ZDBy322H1SMXV3-10" value="Marca" style="ellipse;whiteSpace=wrap;html=1;" vertex="1" parent="1">
          <mxGeometry x="486" y="130" width="96" height="52" as="geometry" />
        </mxCell>
        <mxCell id="41VtS2ZDBy322H1SMXV3-11" value="Modelo" style="ellipse;whiteSpace=wrap;html=1;" vertex="1" parent="1">
          <mxGeometry x="596" y="130" width="96" height="52" as="geometry" />
        </mxCell>
        <mxCell id="41VtS2ZDBy322H1SMXV3-12" value="Año" style="ellipse;whiteSpace=wrap;html=1;" vertex="1" parent="1">
          <mxGeometry x="696" y="160" width="96" height="52" as="geometry" />
        </mxCell>
        <mxCell id="41VtS2ZDBy322H1SMXV3-13" value="&lt;u&gt;Matricula&lt;/u&gt;" style="ellipse;whiteSpace=wrap;html=1;" vertex="1" parent="1">
          <mxGeometry x="710" y="250" width="96" height="52" as="geometry" />
        </mxCell>
        <mxCell id="41VtS2ZDBy322H1SMXV3-14" value="Fecha" style="ellipse;whiteSpace=wrap;html=1;" vertex="1" parent="1">
          <mxGeometry x="426" y="650" width="96" height="52" as="geometry" />
        </mxCell>
        <mxCell id="41VtS2ZDBy322H1SMXV3-15" value="Descripcion" style="ellipse;whiteSpace=wrap;html=1;" vertex="1" parent="1">
          <mxGeometry x="558" y="680" width="96" height="52" as="geometry" />
        </mxCell>
        <mxCell id="41VtS2ZDBy322H1SMXV3-16" value="&lt;u&gt;Id_siniestro&lt;/u&gt;" style="ellipse;whiteSpace=wrap;html=1;" vertex="1" parent="1">
          <mxGeometry x="696" y="650" width="96" height="52" as="geometry" />
        </mxCell>
        <mxCell id="41VtS2ZDBy322H1SMXV3-17" value="" style="endArrow=none;html=1;rounded=0;entryX=0;entryY=0.5;entryDx=0;entryDy=0;exitX=0.5;exitY=0;exitDx=0;exitDy=0;" edge="1" parent="1" source="41VtS2ZDBy322H1SMXV3-14" target="41VtS2ZDBy322H1SMXV3-3">
          <mxGeometry width="50" height="50" relative="1" as="geometry">
            <mxPoint x="390" y="460" as="sourcePoint" />
            <mxPoint x="440" y="410" as="targetPoint" />
          </mxGeometry>
        </mxCell>
        <mxCell id="41VtS2ZDBy322H1SMXV3-18" value="" style="endArrow=none;html=1;rounded=0;entryX=0.5;entryY=0;entryDx=0;entryDy=0;exitX=1;exitY=0.5;exitDx=0;exitDy=0;" edge="1" parent="1" source="41VtS2ZDBy322H1SMXV3-3" target="41VtS2ZDBy322H1SMXV3-16">
          <mxGeometry width="50" height="50" relative="1" as="geometry">
            <mxPoint x="390" y="460" as="sourcePoint" />
            <mxPoint x="440" y="410" as="targetPoint" />
          </mxGeometry>
        </mxCell>
        <mxCell id="41VtS2ZDBy322H1SMXV3-19" value="" style="endArrow=none;html=1;rounded=0;entryX=0.5;entryY=0;entryDx=0;entryDy=0;exitX=0.5;exitY=1;exitDx=0;exitDy=0;" edge="1" parent="1" source="41VtS2ZDBy322H1SMXV3-3" target="41VtS2ZDBy322H1SMXV3-15">
          <mxGeometry width="50" height="50" relative="1" as="geometry">
            <mxPoint x="390" y="460" as="sourcePoint" />
            <mxPoint x="440" y="410" as="targetPoint" />
          </mxGeometry>
        </mxCell>
        <mxCell id="41VtS2ZDBy322H1SMXV3-20" value="" style="endArrow=none;html=1;rounded=0;entryX=0.5;entryY=1;entryDx=0;entryDy=0;exitX=0.25;exitY=0;exitDx=0;exitDy=0;" edge="1" parent="1" source="41VtS2ZDBy322H1SMXV3-2" target="41VtS2ZDBy322H1SMXV3-10">
          <mxGeometry width="50" height="50" relative="1" as="geometry">
            <mxPoint x="390" y="460" as="sourcePoint" />
            <mxPoint x="440" y="410" as="targetPoint" />
          </mxGeometry>
        </mxCell>
        <mxCell id="41VtS2ZDBy322H1SMXV3-21" value="" style="endArrow=none;html=1;rounded=0;entryX=0;entryY=0.5;entryDx=0;entryDy=0;exitX=1;exitY=0.5;exitDx=0;exitDy=0;" edge="1" parent="1" source="41VtS2ZDBy322H1SMXV3-2" target="41VtS2ZDBy322H1SMXV3-13">
          <mxGeometry width="50" height="50" relative="1" as="geometry">
            <mxPoint x="390" y="460" as="sourcePoint" />
            <mxPoint x="440" y="410" as="targetPoint" />
          </mxGeometry>
        </mxCell>
        <mxCell id="41VtS2ZDBy322H1SMXV3-22" value="" style="endArrow=none;html=1;rounded=0;entryX=0.5;entryY=1;entryDx=0;entryDy=0;exitX=0.5;exitY=0;exitDx=0;exitDy=0;" edge="1" parent="1" source="41VtS2ZDBy322H1SMXV3-2" target="41VtS2ZDBy322H1SMXV3-11">
          <mxGeometry width="50" height="50" relative="1" as="geometry">
            <mxPoint x="390" y="460" as="sourcePoint" />
            <mxPoint x="440" y="410" as="targetPoint" />
          </mxGeometry>
        </mxCell>
        <mxCell id="41VtS2ZDBy322H1SMXV3-23" value="" style="endArrow=none;html=1;rounded=0;entryX=0;entryY=1;entryDx=0;entryDy=0;exitX=1;exitY=0;exitDx=0;exitDy=0;" edge="1" parent="1" source="41VtS2ZDBy322H1SMXV3-2" target="41VtS2ZDBy322H1SMXV3-12">
          <mxGeometry width="50" height="50" relative="1" as="geometry">
            <mxPoint x="390" y="460" as="sourcePoint" />
            <mxPoint x="440" y="410" as="targetPoint" />
          </mxGeometry>
        </mxCell>
        <mxCell id="41VtS2ZDBy322H1SMXV3-24" value="Telefono" style="ellipse;whiteSpace=wrap;html=1;" vertex="1" parent="1">
          <mxGeometry x="10" y="160" width="96" height="52" as="geometry" />
        </mxCell>
        <mxCell id="41VtS2ZDBy322H1SMXV3-25" value="&lt;u&gt;DNI&lt;/u&gt;" style="ellipse;whiteSpace=wrap;html=1;" vertex="1" parent="1">
          <mxGeometry x="140" y="160" width="96" height="52" as="geometry" />
        </mxCell>
        <mxCell id="41VtS2ZDBy322H1SMXV3-26" value="Nombre" style="ellipse;whiteSpace=wrap;html=1;" vertex="1" parent="1">
          <mxGeometry x="10" y="380" width="96" height="52" as="geometry" />
        </mxCell>
        <mxCell id="41VtS2ZDBy322H1SMXV3-27" value="Apellido" style="ellipse;whiteSpace=wrap;html=1;" vertex="1" parent="1">
          <mxGeometry x="140" y="380" width="96" height="52" as="geometry" />
        </mxCell>
        <mxCell id="41VtS2ZDBy322H1SMXV3-28" value="" style="endArrow=none;html=1;rounded=0;entryX=1;entryY=1;entryDx=0;entryDy=0;exitX=0.5;exitY=0;exitDx=0;exitDy=0;" edge="1" parent="1" source="41VtS2ZDBy322H1SMXV3-27" target="41VtS2ZDBy322H1SMXV3-1">
          <mxGeometry width="50" height="50" relative="1" as="geometry">
            <mxPoint x="380" y="460" as="sourcePoint" />
            <mxPoint x="430" y="410" as="targetPoint" />
          </mxGeometry>
        </mxCell>
        <mxCell id="41VtS2ZDBy322H1SMXV3-29" value="" style="endArrow=none;html=1;rounded=0;entryX=0.25;entryY=1;entryDx=0;entryDy=0;exitX=0.5;exitY=0;exitDx=0;exitDy=0;" edge="1" parent="1" source="41VtS2ZDBy322H1SMXV3-26" target="41VtS2ZDBy322H1SMXV3-1">
          <mxGeometry width="50" height="50" relative="1" as="geometry">
            <mxPoint x="380" y="460" as="sourcePoint" />
            <mxPoint x="430" y="410" as="targetPoint" />
          </mxGeometry>
        </mxCell>
        <mxCell id="41VtS2ZDBy322H1SMXV3-30" value="" style="endArrow=none;html=1;rounded=0;entryX=0.5;entryY=1;entryDx=0;entryDy=0;exitX=0.25;exitY=0;exitDx=0;exitDy=0;" edge="1" parent="1" source="41VtS2ZDBy322H1SMXV3-1" target="41VtS2ZDBy322H1SMXV3-24">
          <mxGeometry width="50" height="50" relative="1" as="geometry">
            <mxPoint x="380" y="460" as="sourcePoint" />
            <mxPoint x="430" y="410" as="targetPoint" />
          </mxGeometry>
        </mxCell>
        <mxCell id="41VtS2ZDBy322H1SMXV3-31" value="" style="endArrow=none;html=1;rounded=0;entryX=0;entryY=1;entryDx=0;entryDy=0;exitX=0.75;exitY=0;exitDx=0;exitDy=0;" edge="1" parent="1" source="41VtS2ZDBy322H1SMXV3-1" target="41VtS2ZDBy322H1SMXV3-25">
          <mxGeometry width="50" height="50" relative="1" as="geometry">
            <mxPoint x="380" y="460" as="sourcePoint" />
            <mxPoint x="430" y="410" as="targetPoint" />
          </mxGeometry>
        </mxCell>
        <mxCell id="41VtS2ZDBy322H1SMXV3-32" value="(1,N)" style="text;strokeColor=none;align=center;fillColor=none;html=1;verticalAlign=middle;whiteSpace=wrap;rounded=0;" vertex="1" parent="1">
          <mxGeometry x="316" y="210" width="60" height="30" as="geometry" />
        </mxCell>
        <mxCell id="41VtS2ZDBy322H1SMXV3-33" value="(1,N)" style="text;strokeColor=none;align=center;fillColor=none;html=1;verticalAlign=middle;whiteSpace=wrap;rounded=0;" vertex="1" parent="1">
          <mxGeometry x="650" y="435" width="60" height="30" as="geometry" />
        </mxCell>
      </root>
    </mxGraphModel>
  </diagram>
</mxfile>
